<?xml version="1.0" standalone="no"?>
<!DOCTYPE svg PUBLIC "-//W3C//DTD SVG 20010904//EN"
 "http://www.w3.org/TR/2001/REC-SVG-20010904/DTD/svg10.dtd">
<svg version="1.0" xmlns="http://www.w3.org/2000/svg"
 width="315.000000pt" height="374.000000pt" viewBox="0 0 315.000000 374.000000"
 preserveAspectRatio="xMidYMid meet">

<g transform="translate(0.000000,374.000000) scale(0.100000,-0.100000)"
fill="#000000" stroke="none">
<path d="M1630 3559 c-30 -11 -66 -21 -80 -23 -30 -4 -69 -20 -251 -103 -74
-34 -156 -91 -182 -125 -39 -53 -51 -79 -120 -248 -32 -77 -46 -203 -34 -305
11 -93 5 -138 -28 -210 -34 -73 -36 -124 -12 -325 20 -166 30 -198 63 -206 23
-6 24 -9 24 -103 0 -101 17 -177 48 -221 32 -44 33 -59 6 -113 -40 -79 -69
-113 -124 -143 -59 -32 -59 -25 7 -164 25 -52 59 -126 75 -165 34 -78 45 -90
65 -69 8 8 26 14 41 14 15 0 36 7 46 15 17 13 23 13 44 -1 13 -9 26 -13 29
-10 4 3 13 1 20 -6 11 -9 16 -9 22 1 7 10 13 10 29 2 28 -15 32 -14 32 9 0 25
19 34 51 22 31 -11 125 0 212 26 79 23 81 24 83 60 1 15 2 34 3 43 2 35 35 60
83 64 81 6 178 58 178 96 0 9 18 33 41 53 28 24 34 33 20 29 -12 -3 -21 -9
-21 -14 0 -5 -10 -9 -23 -9 -13 0 -28 -5 -34 -11 -14 -14 -62 -19 -69 -7 -3 4
-9 6 -14 3 -32 -20 -168 65 -157 98 2 7 30 19 63 27 48 12 60 19 62 38 3 17
-2 22 -18 22 -12 0 -33 13 -48 28 -15 16 -46 37 -69 47 -24 10 -43 22 -43 27
0 5 57 8 126 7 69 0 127 1 130 4 6 6 -164 87 -184 87 -10 1 -28 7 -41 14 -21
12 -21 14 -6 20 10 3 28 0 40 -8 14 -9 48 -15 91 -15 38 0 84 -5 102 -10 27
-8 32 -7 33 7 0 14 2 14 6 2 3 -8 15 -25 27 -38 17 -20 18 -24 6 -32 -8 -5
-23 -10 -32 -10 -33 0 -18 -15 32 -32 l50 -16 15 29 c9 16 20 29 25 29 6 0 10
10 10 23 0 29 -40 53 -106 62 -37 5 -60 15 -85 38 -30 27 -40 31 -86 29 -59
-3 -96 21 -87 55 3 11 -2 25 -10 32 -21 18 -20 49 4 145 11 43 20 104 20 135
0 31 7 79 16 106 33 103 34 113 25 136 -5 13 -19 33 -31 44 -12 11 -26 30 -31
42 -4 12 -41 44 -81 71 -40 27 -82 60 -93 73 -22 26 -22 73 -1 99 41 51 60
165 36 211 -9 16 -7 21 15 29 14 5 25 14 25 19 0 5 17 19 38 31 34 21 52 23
212 26 112 2 188 -1 210 -9 19 -6 40 -11 45 -11 44 -3 159 -92 160 -123 0 -13
39 -53 50 -53 21 0 66 -58 79 -101 9 -32 11 -76 5 -164 -4 -66 -7 -172 -7
-235 l1 -115 8 84 c5 46 13 89 18 95 4 6 23 54 40 107 27 81 32 113 33 200 1
92 -2 113 -26 179 -16 41 -36 86 -46 100 -9 14 -27 57 -39 95 -27 89 -52 117
-229 265 -99 83 -411 141 -532 99z m-297 -1359 c9 -11 22 -20 29 -20 7 0 23
-9 36 -18 l24 -18 -22 -37 c-12 -20 -28 -37 -35 -37 -7 0 -19 -10 -28 -22
l-15 -23 -43 30 c-43 30 -66 64 -36 52 11 -4 13 0 10 14 -3 10 -9 19 -13 19
-4 0 -10 11 -12 24 -5 25 12 40 57 49 11 3 22 5 25 6 3 0 13 -8 23 -19z"/>
<path d="M1960 2606 c-60 -19 -72 -30 -65 -59 4 -14 15 -33 24 -41 15 -14 17
-29 13 -91 -4 -64 -2 -79 14 -96 29 -32 69 -49 114 -49 33 0 40 3 40 19 0 10
-7 21 -15 25 -26 9 -16 21 17 21 23 0 35 6 44 23 17 35 21 36 58 13 21 -13 37
-18 41 -11 7 12 -47 47 -87 55 -39 9 -35 25 6 25 19 0 49 -11 70 -25 20 -13
36 -20 36 -14 0 11 -96 59 -118 59 -8 0 -12 7 -10 16 3 15 28 32 82 53 l28 12
-28 24 c-16 14 -36 25 -45 25 -9 0 -19 3 -23 7 -4 4 -25 6 -46 4 -26 -2 -40 2
-40 9 0 9 -4 9 -16 -1 -9 -7 -18 -9 -22 -3 -10 13 -31 13 -72 0z"/>
<path d="M2060 934 c0 -16 5 -36 11 -44 7 -11 8 -4 3 25 -8 50 -14 58 -14 19z"/>
</g>
</svg>
